<?xml version="1.0" encoding="UTF-8" standalone="no"?>
<svg width="146.85px" height="144.66px" viewBox="0 0 146.85 144.66" xmlns="http://www.w3.org/2000/svg">
    <title>HelloFresh_Logo</title>
    <path d="M0.21,54.24c1.34-6.07,9-10.95,18.16-10.95,12.84,0,16.79,12.44,16.79,12.44-10.81,1.74-20.73,3.9-30.64.14h0L4.78,56A33.24,33.24,0,0,1,.21,54.24Z" style="fill: #85af18"/><path d="M146.64,90.42c-1.34,6.07-9,10.95-18.16,10.95-12.84,0-16.79-12.44-16.79-12.44,10.81-1.74,20.73-3.9,30.64-.14h0l-0.24-.09A33.26,33.26,0,0,1,146.64,90.42Z" style="fill: #85af18"/><path d="M90.9,90.42c-1.34,6.07-9,11-18.16,11C59.9,101.38,56,88.93,56,88.93,66.76,87.2,76.68,85,86.59,88.8h0l-0.24-.09A33.15,33.15,0,0,1,90.9,90.42Z" style="fill: #82af42"/><path
        d="M142.26,89.16a14.44,14.44,0,0,1,1.83-11.54,9.57,9.57,0,0,0,0-10.58,14.41,14.41,0,0,1-1.83-11.53A9.59,9.59,0,0,0,139,45.44a14.4,14.4,0,0,1-5.3-10.4,9.58,9.58,0,0,0-6.22-8.57,14.39,14.39,0,0,1-8.25-8.25A9.58,9.58,0,0,0,110.64,12a14.39,14.39,0,0,1-10.4-5.3A9.58,9.58,0,0,0,90.17,3.41,14.41,14.41,0,0,1,78.64,1.59a9.59,9.59,0,0,0-10.59,0A14.42,14.42,0,0,1,56.52,3.41,9.58,9.58,0,0,0,46.45,6.69,14.4,14.4,0,0,1,36,12a9.57,9.57,0,0,0-8.57,6.22,14.22,14.22,0,0,1-8.1,8.2C16,27.49,12.82,31,12.83,34s0.06,5.56.1,5.52a2.54,2.54,0,0,1,.09,1c0,0.58-2.2,2.65-4.89,4.59S3.05,51.79,4.07,54.9,6,60.53,6,60.48a1.16,1.16,0,0,1,.28.59c0.12,0.37-1.3,2.75-3.16,5.28s-2.85,8.26-.78,11.09,3.79,5.12,3.8,5.08,0.1,0,.19.16a37,37,0,0,1-1.54,5.44c-0.94,2.87-.17,9,2.75,11.06a14.4,14.4,0,0,1,5.3,10.4A9.58,9.58,0,0,0,19,118.17a14.39,14.39,0,0,1,8.25,8.24A9.81,9.81,0,0,0,36,132.67,14.32,14.32,0,0,1,46.28,138a9.83,9.83,0,0,0,10.19,3.3,14.28,14.28,0,0,1,11.44,1.81,9.83,9.83,0,0,0,10.72,0,14.31,14.31,0,0,1,11.44-1.84A9.8,9.8,0,0,0,100.24,138a14.42,14.42,0,0,1,10.4-5.3,9.6,9.6,0,0,0,8.57-6.22,14.37,14.37,0,0,1,8.25-8.24,9.59,9.59,0,0,0,6.22-8.57,14.39,14.39,0,0,1,5.3-10.4A9.59,9.59,0,0,0,142.26,89.16Z"
        style="fill: #98cb23"/><circle cx="73.99" cy="71.83" r="53.53" style="fill: #98cb23"/><path
        d="M134.54,74.2a1.25,1.25,0,0,0-.12,2.49A1.25,1.25,0,1,0,134.54,74.2Zm-0.27,4.36a1.27,1.27,0,0,0-1.39,1.09A1.26,1.26,0,0,0,134,81a1.23,1.23,0,0,0,1.4-1.09A1.22,1.22,0,0,0,134.28,78.56Zm-0.61,4.32a1.25,1.25,0,0,0-1.44,1,1.27,1.27,0,0,0,1,1.46,1.23,1.23,0,0,0,1.48-1A1.25,1.25,0,0,0,133.66,82.88Zm-0.89,4.27a1.28,1.28,0,0,0-1.52.88,1.25,1.25,0,0,0,2.41.65A1.22,1.22,0,0,0,132.77,87.16Zm-1.21,4.2a1.25,1.25,0,0,0-1.58.77,1.27,1.27,0,0,0,.76,1.59,1.22,1.22,0,0,0,1.6-.76A1.24,1.24,0,0,0,131.56,91.35Zm-1.51,4.1a1.26,1.26,0,0,0-1.62.66,1.25,1.25,0,1,0,2.29,1A1.23,1.23,0,0,0,130.05,95.45Zm-1.79,4a1.25,1.25,0,0,0-1.67.54,1.27,1.27,0,0,0,.53,1.68,1.22,1.22,0,0,0,1.68-.53A1.23,1.23,0,0,0,128.26,99.43Zm-2.08,3.84a1.25,1.25,0,0,0-1.7.42,1.24,1.24,0,0,0,.39,1.7,1.25,1.25,0,0,0,1.74-.4A1.24,1.24,0,0,0,126.18,103.27ZM123.84,107a1.25,1.25,0,0,0-1.45,2,1.22,1.22,0,0,0,1.74-.29A1.23,1.23,0,0,0,123.84,107Zm-2.61,3.5a1.25,1.25,0,1,0,.18,1.77A1.25,1.25,0,0,0,121.24,110.46Zm-4.6,3.35a1.28,1.28,0,0,0,0,1.77,1.25,1.25,0,1,0,1.72-1.81A1.26,1.26,0,0,0,116.64,113.81Zm-3.06,3a1.23,1.23,0,0,0-.11,1.74,1.25,1.25,0,1,0,1.85-1.67A1.24,1.24,0,0,0,113.58,116.8Zm-3.28,2.75a1.27,1.27,0,0,0-.21,1.75,1.25,1.25,0,0,0,2-1.54A1.26,1.26,0,0,0,110.29,119.55Zm-3.45,2.53a1.23,1.23,0,0,0-.36,1.71,1.25,1.25,0,1,0,2.07-1.39A1.24,1.24,0,0,0,106.84,122.07Zm-3.64,2.25a1.27,1.27,0,0,0-.46,1.71,1.25,1.25,0,0,0,2.16-1.25A1.27,1.27,0,0,0,103.2,124.32Zm-3.77,2a1.24,1.24,0,0,0-.6,1.64,1.25,1.25,0,1,0,2.25-1.08A1.24,1.24,0,0,0,99.43,126.33ZM95.5,128a1.27,1.27,0,0,0-.7,1.62,1.25,1.25,0,0,0,2.33-.91A1.27,1.27,0,0,0,95.5,128Zm-4,1.45a1.25,1.25,0,1,0,1.56.79A1.25,1.25,0,0,0,91.48,129.48Zm-4.12,1.13a1.26,1.26,0,0,0-.93,1.49,1.24,1.24,0,0,0,1.5.93,1.22,1.22,0,0,0,.93-1.5A1.28,1.28,0,0,0,87.35,130.61Zm-4.19.84a1.27,1.27,0,0,0-1,1.42,1.23,1.23,0,0,0,1.44,1A1.25,1.25,0,1,0,83.16,131.45Zm-4.24.54a1.25,1.25,0,1,0,.23,2.48,1.23,1.23,0,0,0,1.13-1.37A1.27,1.27,0,0,0,78.92,132Zm-4.27.23a1.27,1.27,0,0,0-1.22,1.28,1.25,1.25,0,1,0,2.49-.06A1.25,1.25,0,0,0,74.65,132.22Zm-4.28,0a1.23,1.23,0,0,0-1.31,1.15,1.25,1.25,0,1,0,2.49.13A1.23,1.23,0,0,0,70.37,132.17Zm-4.26-.38a1.26,1.26,0,0,0-1.39,1.08,1.23,1.23,0,0,0,1.09,1.4,1.22,1.22,0,0,0,1.39-1.08A1.28,1.28,0,0,0,66.11,131.79Zm-4.23-.66a1.27,1.27,0,0,0-1.46,1,1.23,1.23,0,0,0,1,1.48A1.25,1.25,0,1,0,61.88,131.13Zm-4.16-1a1.25,1.25,0,1,0-.65,2.41,1.22,1.22,0,0,0,1.53-.88A1.27,1.27,0,0,0,57.72,130.16Zm-4.08-1.27a1.28,1.28,0,0,0-1.59.76,1.21,1.21,0,0,0,.76,1.59,1.24,1.24,0,0,0,1.59-.78A1.25,1.25,0,0,0,53.64,128.89Zm-4-1.55a1.25,1.25,0,1,0,.66,1.62A1.27,1.27,0,0,0,49.65,127.34Zm-3.86-1.84a1.27,1.27,0,0,0-1.68.53,1.22,1.22,0,0,0,.53,1.68,1.24,1.24,0,0,0,1.69-.54A1.26,1.26,0,0,0,45.79,125.49Zm-3.73-2.1a1.25,1.25,0,1,0,.42,1.7A1.26,1.26,0,0,0,42.07,123.39ZM38.51,121a1.28,1.28,0,0,0-1.74.29,1.21,1.21,0,0,0,.29,1.74,1.23,1.23,0,0,0,1.74-.29A1.26,1.26,0,0,0,38.51,121Zm-5.13-2.47a1.26,1.26,0,0,0,.15,1.78A1.25,1.25,0,1,0,33.38,118.54Zm-3.21-3a1.22,1.22,0,0,0,0,1.76,1.23,1.23,0,0,0,1.77,0A1.25,1.25,0,0,0,30.18,115.58Zm-3-3.21a1.25,1.25,0,1,0,1.67,1.85A1.25,1.25,0,0,0,27.21,112.38ZM24.46,109a1.25,1.25,0,0,0,1.54,2A1.25,1.25,0,0,0,24.46,109ZM22,105.39a1.25,1.25,0,1,0,1.39,2.07A1.25,1.25,0,0,0,22,105.39Zm-2.55-7.06a1.24,1.24,0,0,0-1.64-.59A1.25,1.25,0,1,0,18.87,100,1.23,1.23,0,0,0,19.43,98.33Zm-1.71-3.92a1.26,1.26,0,0,0-1.62-.7A1.25,1.25,0,0,0,17,96,1.27,1.27,0,0,0,17.72,94.41Zm-1.44-4a1.25,1.25,0,1,0-.79,1.56A1.25,1.25,0,0,0,16.28,90.38Zm-2.05-2.62a1.29,1.29,0,0,0,.92-1.5,1.26,1.26,0,0,0-1.5-.92,1.23,1.23,0,0,0-.93,1.5A1.21,1.21,0,0,0,14.23,87.76ZM13.29,83.5a1.25,1.25,0,0,0,1-1.43,1.27,1.27,0,0,0-1.42-1,1.23,1.23,0,0,0-1,1.43A1.25,1.25,0,0,0,13.29,83.5Zm-0.64-4.32a1.27,1.27,0,0,0,1.12-1.36,1.25,1.25,0,1,0-2.48.23A1.23,1.23,0,0,0,12.65,79.18Zm-0.33-4.35a1.25,1.25,0,0,0-.06-2.5A1.21,1.21,0,0,0,11,73.6,1.23,1.23,0,0,0,12.32,74.83Zm0-4.37A1.25,1.25,0,0,0,12.43,68,1.25,1.25,0,1,0,12.31,70.46Zm0.27-4.36a1.25,1.25,0,0,0,.31-2.47,1.23,1.23,0,0,0-1.39,1.09A1.21,1.21,0,0,0,12.58,66.1Zm0.61-4.32a1.24,1.24,0,0,0,1.44-1,1.27,1.27,0,0,0-1-1.46,1.23,1.23,0,0,0-1.47,1A1.24,1.24,0,0,0,13.19,61.78Zm0.89-4.27a1.28,1.28,0,0,0,1.52-.88A1.25,1.25,0,0,0,13.19,56,1.22,1.22,0,0,0,14.08,57.5Zm1.21-4.19a1.25,1.25,0,0,0,1.58-.77A1.27,1.27,0,0,0,16.11,51a1.21,1.21,0,0,0-1.59.76A1.24,1.24,0,0,0,15.29,53.31Zm1.5-4.1a1.27,1.27,0,0,0,1.63-.66A1.25,1.25,0,1,0,16.79,49.21Zm1.8-4a1.26,1.26,0,0,0,1.67-.53A1.28,1.28,0,0,0,19.74,43a1.22,1.22,0,0,0-1.68.53A1.24,1.24,0,0,0,18.59,45.23Zm2.08-3.84a1.25,1.25,0,1,0-.43-1.73A1.25,1.25,0,0,0,20.67,41.39ZM23,37.71a1.26,1.26,0,0,0,1.74-.29,1.28,1.28,0,0,0-.29-1.74,1.22,1.22,0,0,0-1.74.29A1.23,1.23,0,0,0,23,37.71Zm2.61-3.5a1.25,1.25,0,1,0-.18-1.77A1.25,1.25,0,0,0,25.62,34.21Zm4.56-5.12a1.22,1.22,0,0,0-1.76,0,1.23,1.23,0,0,0,0,1.77A1.25,1.25,0,0,0,30.18,29.08Zm3.21-3a1.25,1.25,0,1,0-1.85,1.67A1.25,1.25,0,0,0,33.38,26.12Zm3.39-2.75a1.25,1.25,0,0,0-2,1.54A1.25,1.25,0,0,0,36.77,23.36Zm3.59-2.48a1.25,1.25,0,1,0-2.07,1.39A1.25,1.25,0,0,0,40.36,20.88Zm3.75-2.24a1.25,1.25,0,0,0-2.16,1.25A1.25,1.25,0,0,0,44.11,18.64ZM48,16.7a1.25,1.25,0,1,0-2.25,1.08A1.25,1.25,0,0,0,48,16.7ZM52,15a1.25,1.25,0,0,0-2.32.92A1.25,1.25,0,0,0,52,15Zm4.14-1.37a1.25,1.25,0,0,0-1.57-.84,1.26,1.26,0,0,0-.81,1.59A1.25,1.25,0,0,0,56.19,13.64Zm4.23-1.08a1.24,1.24,0,0,0-1.5-.93,1.22,1.22,0,0,0-.93,1.5,1.28,1.28,0,0,0,1.5.93A1.26,1.26,0,0,0,60.42,12.57Zm4.3-.77a1.23,1.23,0,0,0-1.44-1,1.25,1.25,0,0,0,.4,2.46A1.27,1.27,0,0,0,64.72,11.79Zm3-1.6a1.23,1.23,0,0,0-1.13,1.37,1.27,1.27,0,0,0,1.36,1.11A1.25,1.25,0,1,0,67.7,10.19ZM72.15,10a1.24,1.24,0,0,0-1.22,1.28,1.26,1.26,0,0,0,1.27,1.22,1.28,1.28,0,0,0,1.22-1.28A1.22,1.22,0,0,0,72.15,10Zm4.45,0a1.27,1.27,0,0,0-1.31,1.22,1.25,1.25,0,0,0,2.49.12A1.26,1.26,0,0,0,76.6,10ZM81,10.4a1.22,1.22,0,0,0-1.39,1.08,1.27,1.27,0,0,0,1.08,1.39,1.26,1.26,0,0,0,1.39-1.08A1.24,1.24,0,0,0,81,10.4Zm4.4,0.69a1.25,1.25,0,1,0,1,1.48A1.23,1.23,0,0,0,85.44,11.09Zm4.34,1a1.22,1.22,0,0,0-1.53.89,1.28,1.28,0,0,0,.88,1.52A1.25,1.25,0,0,0,89.78,12.1ZM94,13.42a1.25,1.25,0,1,0-.82,2.35A1.28,1.28,0,0,0,94.8,15,1.21,1.21,0,0,0,94,13.42ZM98.19,15a1.23,1.23,0,0,0-1.65.66,1.27,1.27,0,0,0,.66,1.63A1.25,1.25,0,0,0,98.19,15Zm4.55,3.6a1.22,1.22,0,0,0-.53-1.68,1.24,1.24,0,0,0-1.69.54,1.26,1.26,0,0,0,.53,1.67A1.29,1.29,0,0,0,102.74,18.64Zm3.74,2.24a1.25,1.25,0,1,0-1.7.39A1.24,1.24,0,0,0,106.49,20.88Zm3.59,2.48a1.21,1.21,0,0,0-.29-1.74,1.23,1.23,0,0,0-1.74.29,1.26,1.26,0,0,0,.29,1.74A1.28,1.28,0,0,0,110.08,23.36Zm3.24,1a1.25,1.25,0,1,0,.15,1.77A1.24,1.24,0,0,0,113.32,24.34Zm3.31,3a1.23,1.23,0,0,0-1.77,0,1.25,1.25,0,0,0,1.81,1.72A1.22,1.22,0,0,0,116.64,27.32Zm3,5A1.25,1.25,0,1,0,118,30.44,1.25,1.25,0,0,0,119.64,32.29Zm3,1.64a1.23,1.23,0,0,0-1.75-.21,1.26,1.26,0,0,0-.21,1.75,1.28,1.28,0,0,0,1.75.22A1.22,1.22,0,0,0,122.6,33.93Zm2.27,5.34a1.25,1.25,0,1,0-1.39-2.07A1.25,1.25,0,0,0,124.87,39.27Zm2.55,7.06a1.24,1.24,0,0,0,1.64.59A1.25,1.25,0,1,0,128,44.68,1.23,1.23,0,0,0,127.42,46.33Zm1.7,3.92a1.27,1.27,0,0,0,1.62.7,1.25,1.25,0,0,0-.91-2.32A1.27,1.27,0,0,0,129.12,50.25Zm1.45,4a1.25,1.25,0,1,0,.79-1.56A1.24,1.24,0,0,0,130.57,54.28Zm2.06,2.62a1.28,1.28,0,0,0-.93,1.5,1.25,1.25,0,0,0,1.49.92,1.23,1.23,0,0,0,.93-1.5A1.22,1.22,0,0,0,132.63,56.9Zm0.93,4.27a1.25,1.25,0,0,0-1,1.43,1.27,1.27,0,0,0,1.42,1,1.22,1.22,0,0,0,1-1.43A1.25,1.25,0,0,0,133.55,61.16Zm0.64,4.32a1.27,1.27,0,0,0-1.12,1.35,1.25,1.25,0,0,0,2.48-.22A1.23,1.23,0,0,0,134.2,65.48Zm0.33,4.36a1.26,1.26,0,0,0-1.21,1.27,1.28,1.28,0,0,0,1.28,1.22,1.22,1.22,0,0,0,1.22-1.27A1.23,1.23,0,0,0,134.53,69.84Z"
        style="fill: #fff"/><path
        d="M28.22,103.54a57.1,57.1,0,0,1-24.11-5c-2.4-1.09-3.52-3.94-3.52-9V56.13a8.2,8.2,0,0,1,.07-1,35.33,35.33,0,0,0,3.95,1.43A62.2,62.2,0,0,0,26.9,60.44c15.55,0,31.31-5,46.56-9.77,14.91-4.69,30.32-9.55,45.17-9.55a58.09,58.09,0,0,1,19.5,3.18c1.53,0.53,3.08,1.15,4.6,1.85,2.34,1.06,3.46,3.79,3.52,8.58v33.8a8,8,0,0,1-.07,1,35.19,35.19,0,0,0-3.94-1.43A62.19,62.19,0,0,0,120,84.22c-15.55,0-31.32,5-46.56,9.77C58.49,98.69,43.08,103.54,28.22,103.54Z"
        style="fill: #90c100;fill-rule: evenodd;"/><path
        d="M118.63,41.72h0a57.5,57.5,0,0,1,19.3,3.15c1.51,0.53,3,1.14,4.55,1.83,2.08,0.94,3.11,3.57,3.17,8V88.54s0,0.1,0,.15c-1-.4-2.07-0.78-3.2-1.12a62.91,62.91,0,0,0-22.51-3.95c-15.64,0-31.45,5-46.74,9.8-14.86,4.68-30.23,9.52-45,9.52A56.51,56.51,0,0,1,4.37,98C2.24,97,1.2,94.25,1.2,89.55V56.13s0-.1,0-0.15c1,0.4,2.07.78,3.2,1.12A62.86,62.86,0,0,0,26.9,61c15.64,0,31.45-5,46.74-9.79,14.86-4.68,30.23-9.52,45-9.52m0-1.2c-30.06,0-61,19.32-91.73,19.32A62,62,0,0,1,4.78,56,33.24,33.24,0,0,1,.21,54.24,8.76,8.76,0,0,0,0,56.13V89.55c0,4.55.91,8.16,3.87,9.5a57.9,57.9,0,0,0,24.35,5.08c30.06,0,61-19.32,91.73-19.32a62,62,0,0,1,22.12,3.88,33.16,33.16,0,0,1,4.57,1.72,8.67,8.67,0,0,0,.21-1.89V54.73c-0.05-4.37-1-7.82-3.87-9.12q-2.32-1.05-4.65-1.87a59,59,0,0,0-19.7-3.21h0Z"
        style="fill: #fff"/><path
        d="M41.68,85.32a2,2,0,0,0,.66,1.23,1.68,1.68,0,0,0,1.38.16c1.16-.26,2.63-1.73,4.09-4a4.69,4.69,0,0,1,.14,1c-1.48,2.33-4.43,5.17-6.74,5.69-0.62.14-1.34-.29-1.64-1.64a9.65,9.65,0,0,1,1.14-7.3,9.39,9.39,0,0,1,5.11-4,1,1,0,0,1,1.37.55,2.83,2.83,0,0,1-.47,2,12.16,12.16,0,0,1-5.22,4.4A8.3,8.3,0,0,0,41.68,85.32Zm3.55-6.46a1,1,0,0,0-1.34-.75,2.65,2.65,0,0,0-1.42,1,7.55,7.55,0,0,0-1,3.36,7.86,7.86,0,0,0,3.42-2.3A2,2,0,0,0,45.23,78.86Z"
        style="fill: #fff"/><path d="M52.36,85.74a5.69,5.69,0,0,1-2.75,1.92c0.09-2.84.42-7,.88-11a67.71,67.71,0,0,1,2-10.61,5.41,5.41,0,0,1,2.2-1.47,72.81,72.81,0,0,0-2.06,13.34A63.42,63.42,0,0,0,52.36,85.74Z" style="fill: #fff"/><path d="M58.79,84.31A5.69,5.69,0,0,1,56,86.23c0.09-2.84.41-7,.88-11a67.34,67.34,0,0,1,2-10.61,5.4,5.4,0,0,1,2.2-1.47,72.94,72.94,0,0,0-2.06,13.34A63.56,63.56,0,0,0,58.79,84.31Z" style="fill: #fff"/><path
        d="M69.21,80c-1.52,2.33-3.91,4.11-5.35,4.43-1.19.26-1.71-.51-2-1.6a9.41,9.41,0,0,1,1.26-6.57c1.7-2.67,4-4.53,5.82-4.93,1.19-.26,1.8.46,2.06,1.61C71.47,74.79,71,77.25,69.21,80Zm-4.44-4.79a7.16,7.16,0,0,0-.72,4.88c0.32,1.44.86,2.13,2,1.89,2-.44,3.68-3.8,2.91-7.3C68.64,73.42,68,73,67.06,73.24A3.91,3.91,0,0,0,64.78,75.22Z"
        style="fill: #fff"/><path
        d="M20.63,84.51a80,80,0,0,0-.69,9.25,10.51,10.51,0,0,1-4,2.8,70.12,70.12,0,0,1,1-11c-0.84.23-2.51,0.73-3.59,1.1a6.25,6.25,0,0,1,1.91-2.87c0.63-.18,1.22-0.36,2-0.62,0.53-3.46,1.31-7.42,2-10.77a13.31,13.31,0,0,1,4.1-2.06A112.17,112.17,0,0,0,21,82.2c6-1.63,10.7-2.66,12.46-3.36,0.4-2.63,1.21-8.07,1.61-9.94a14,14,0,0,1,3.91-2.06,101.47,101.47,0,0,0-1.91,12,77.81,77.81,0,0,0-.36,11,8.88,8.88,0,0,1-3.93,2.82,74.16,74.16,0,0,1,.6-13.1,14.11,14.11,0,0,1-3.46,2.1C28.33,82.24,23.61,83.67,20.63,84.51Z"
        style="fill: #fff"/><path d="M97.93,66.78a4.29,4.29,0,0,0-2.68,2.07A17.46,17.46,0,0,0,93,75.67a4.87,4.87,0,0,1-2.48,1.67,43,43,0,0,0,.74-9.93,7,7,0,0,1,2.66-2.2,20,20,0,0,1-.22,5c1.9-3.24,3.43-5.65,5.21-6a1.78,1.78,0,0,1,.75,0,5.22,5.22,0,0,1-1.09,2.47Z"
        style="fill: #fff"/><path
        d="M102.35,70.91a2,2,0,0,0,.67,1.23,1.68,1.68,0,0,0,1.38.15c1.16-.25,2.63-1.73,4.09-4a4.54,4.54,0,0,1,.15,1c-1.48,2.33-4.42,5.18-6.73,5.69-0.63.14-1.34-.29-1.64-1.63a9.63,9.63,0,0,1,1.13-7.3,9.4,9.4,0,0,1,5.11-4,1,1,0,0,1,1.37.55,2.85,2.85,0,0,1-.46,2,12.2,12.2,0,0,1-5.21,4.4A8.27,8.27,0,0,0,102.35,70.91Zm3.55-6.46a1,1,0,0,0-1.35-.75,2.63,2.63,0,0,0-1.42,1,7.57,7.57,0,0,0-1,3.36,7.88,7.88,0,0,0,3.42-2.3A2,2,0,0,0,105.9,64.45Z"
        style="fill: #fff"/><path
        d="M115.63,64.71c1.71,0.47,2.93.92,3.2,2.17a2.25,2.25,0,0,1-.4,1.73,10.07,10.07,0,0,1-5.74,4c-2,.45-3.34-0.27-3.58-1.37a3,3,0,0,1,1.15-2.06c0.75,1.6,2.09,2.62,3.65,2.27a3.21,3.21,0,0,0,2-1.3,2,2,0,0,0,.43-1.6c-0.15-.69-0.89-1.21-2.64-1.71-2.13-.61-2.77-1.12-3-2a1.85,1.85,0,0,1,.32-1.35,10.08,10.08,0,0,1,6-3.8,4.47,4.47,0,0,1,1.59-.06,2.83,2.83,0,0,1-1,1.77,3.62,3.62,0,0,0-2.3-.31,3.26,3.26,0,0,0-2.11,1.25,1.19,1.19,0,0,0-.21.83C113.23,63.8,113.68,64.2,115.63,64.71Z"
        style="fill: #fff"/><path
        d="M129.73,59.44c-0.07-.31-0.2-0.61-0.58-0.53a9.11,9.11,0,0,0-3.89,3.75,14.31,14.31,0,0,0-1.6,6.09,6.06,6.06,0,0,1-2.74,2c0.22-3.72.55-6.81,1-10.8,0.3-3,.92-8.1,1.81-10.6a5.87,5.87,0,0,1,2.21-1.41,64.54,64.54,0,0,0-1.51,9.29c-0.26,2.35-.42,4.45-0.59,6.49,2.67-4.2,6.2-7.21,7.64-7.53a0.61,0.61,0,0,1,.68.57c0.39,1.75-.78,6.2-0.37,8.05a1,1,0,0,0,.74,1,9.39,9.39,0,0,1-3.16,3,21.57,21.57,0,0,1,.1-5.3C129.81,60.21,129.82,59.82,129.73,59.44Z"
        style="fill: #fff"/><path
        d="M80.44,69.63c2.84-.75,7.63-2,10-2.77a4,4,0,0,1-1.27,1.83,54.84,54.84,0,0,1-9.07,3.21,50.4,50.4,0,0,0-.7,7.88,13.14,13.14,0,0,1-3.67,2.9c-0.06-3.87,1.37-12.21,2.71-18.48A10,10,0,0,1,82,61.85C81.35,64.46,80.82,67.42,80.44,69.63Zm-5.18-6.84c-0.13-.6,1.94-3,2.82-3.5C81.94,58,89.46,56.49,93.81,55c0.08,0.36-1.46,2.12-2.58,2.74-1.52.67-6.21,1.95-10.43,3.12A47.53,47.53,0,0,0,75.25,62.79Z"
        style="fill: #fff"/><path
        d="M99.9,94.66s-1.24,1.66-1.35,1.75c-5.7,4.92-18-.07-24.84,1.23-4.54.87-8.82,2.91-11.52,6.84a14.13,14.13,0,0,0-2.29,9.45,10.15,10.15,0,0,1,.17,4.23,9.64,9.64,0,0,1-1.36,2.72c0.2,0.71.33,1.41,0.5,2.07a6.93,6.93,0,0,1,2.43-3.34c0.12-.07,2.78,2.49,3.14,2.74a16,16,0,0,0,3.47,1.85,17.74,17.74,0,0,0,8.52,1c21.76-2.66,23.15-28.48,23.17-28.67S99.9,94.66,99.9,94.66ZM74.29,108a125.61,125.61,0,0,0-11.71,8.77c0.3-.1,2.92-7.47,10.22-11.3,9.42-4.94,23-4.54,23-4.54S80.25,104.3,74.29,108Z"
        style="fill: #fff"/>
</svg>
